<svg xmlns="http://www.w3.org/2000/svg" xml:space="preserve" width="2000" height="120" data-id="lg_g29G6RayLY9gAGw9Ur" data-version="1" viewBox="0 0 2000 120"><g data-padding="20"><g transform="translate(10 2.139)scale(.96435)"><path fill="#ec4104" stroke="#ec4104" stroke-width=".97" d="M746.105 92.387h560.988"/><rect width="415.863" height="92.66" x="561.759" y="-46.168" fill="none" rx="0" ry="0" transform="matrix(.97 0 0 .97 222.26 55.98)"/><path fill="#ed7ba1" d="M832.489 63.797q.08.24-.19.7-.28.47-.7.93-.43.47-.82.86-.38.38-.62.46-.38.16-.69.43t-.47.66q-.85 2.48-3.49 3.1-.46.08-.7.39-.23.31-.46.69-.23.39-.47.74-.23.35-.62.58-1.08.54-2.44.58t-2.29.89q-.7.63-1.04 1.52-.35.89-1.13 1.35-.77.47-1.7.31-.94-.15-1.71.39-.31.16-.62.54-.31.39-.47.78-.23.31-.66.5-.42.2-.81.2-.93-.08-1.78.31-.86.39-1.71.54l-1.01.16-.07.15q-1.24.23-2.37.7-1.12.46-2.29.7-1 .15-1.93.31-.94.15-2.02.46-.85.23-1.71.78-.85.54-1.78.62-.85.08-1.74-.08-.9-.16-1.75-.47-.39-.15-.77 0-.39.16-.78.35-.39.2-.81.35-.43.16-.9 0-.69-.23-1.55-.62-.38-.15-.85-.31-.46-.15-.85-.15-.31 0-.97-.24-.66-.23-1.36-.58t-1.28-.73q-.58-.39-.73-.7-.47-.7-1.05-1.2-.58-.51-.97-1.36-.08-.16-.35-.47t-.43-.31q-.15 0-.23-.31t-.15-.73q-.08-.43-.12-.78l-.04-.35q-.15-.62-.27-1.35-.12-.74-.12-1.36v-1.55q0-.62-.46-1.4-.23-.31-.08-.7.16-.38.39-.69.39-.39.5-.78.12-.39.16-.77.04-.39.11-.74.08-.35.55-.66.38-.31.54-.81.15-.51.08-.9 0-.85.85-1.35.85-.51 1.32-1.13.46-.62.73-1.47.28-.85.59-1.63.23-.54.89-.97.66-.42 1.35-.85.7-.43 1.32-1.05t.86-1.63q.07-.15-.08-.5-.16-.35-.39-.5-.23-.16-.54-.35-.31-.2-.55-.27-.69-.39-1.04-1.05t-.97-1.12q-.62-.47-1.4-.78-.77-.31-.93-1.16-.15-.55-.46-1.21-.31-.65-.31-1.04 0-.62-.08-1.13-.08-.5-.08-1.04-.15-1.01.23-1.86.39-.86 0-1.94l.59-2.87q.35-1.71.97-2.72.15-.31.5-.69.35-.39.66-.55.77-.46 1.16-1.31.39-.7 1.01-1.17.62-.38 1.05-1.35.42-.97.58-1.67.23-.93 1.08-1.24.47-.16.66-.54.2-.39.35-.74.16-.35.31-.66.16-.31.39-.39.46-.15.39-.46.31-.24.93-.24.31 0 1.08-.42.78-.43 1.17-.66l.62-.47q.69-.54 1-1.31.31-.78 1.09-1.25.78-.46 1.47-.89.7-.42 1.32-.97.39-.31.78-.54.38-.23.77-.46 1.17-.78 2.41-1.13t2.55-.74q.55-.15.97-.93.43-.77 1.52-.93.38-.07.69-.07h.7q.31 0 .54-.27.24-.28.35-.63.12-.34.24-.69.11-.35.27-.43.08-.08.11-.08.04 0 .12-.07 1.16-.24 1.9-.35.74-.12 1.82-.9.78-.46 1.55-.31.78.16 1.55-.62.7-.69 1.4-.46.62.15 2.02-.08 1.39-.23 2.09-.39.62.16 1.2.16t1.2.23q1.32.54 2.25.62.39.08.82.08.42 0 .81.08.46.38.74.5.27.12.46.27.2.16.39.39t.5.78q.08.15.35.42t.58.54q.31.28.47.51.15.23-.08.23-.15.08-.12.51.04.42.12.93.08.5.19.93.12.42.12.58.08.39-.04.93-.11.54-.27.85-.46.93-.5 1.94t-.43 2.02q-.15.54-.58 1.08t-.66 1.09q-.39.62-.5 1.31-.12.7-.35 1.4-.08.23 0 .58.07.35-.08.35-.23.16-.43.19-.19.04-.35.2-.15.15-.07 1.12.07.97-.08 1.51-.23.55-.62 1.01-.39.47-.74.93-.35.47-.54 1.01t.04 1.16q.08.31-.16.55-.23.23-.62.39-.38.15-.77.27-.39.11-.62.19-.31.16-.74.54-.43.39-.85.89l-.82.97q-.38.47-.62.7-.46.62-1.28.78-.81.15-1.43.62-.62.46-1.4.62-.38.08-.81-.08-.43-.15-.81-.39-.63-.46-.94-1.01-.23-.31-.27-.93t.08-1.31q.12-.7.23-1.32.12-.62.27-1.01.16-.62.16-1.63v-1.63q0-.38.23-.69.24-.31.55-.66t.62-.74.38-1.01q.08-.39.47-.62t.77-.31q.47-.08.93-.19.47-.12.86-.51.62-.62.77-1.43.16-.82.86-1.44.62-.62 1.43-.81t1.43-.81q.86-.86 1.63-1.75.78-.89.7-2.21v-.77q0-.39.16-.78 0-.08.15-.46.16-.39.27-.82.12-.43.08-.74t-.27-.31q-.62-.62-1.44-.89-.81-.27-1.2-.81-.15-.23-.54-.39-.62.31-.66.66t-.43.74q-.38.38-.85.23-.39-.16-1.36.15t-1.59.47q-.62.15-1.08.12-.47-.04-.97-.08t-1.05.04q-.54.07-1.16.54-.54.47-1.01 1.01-.46.62-1.16.97t-1.24.89q-.31.31-.7.35t-.78 0q-.38-.04-.81 0t-.74.42q-.23.24-.77.62-.54.39-1.16.74t-1.25.7q-.62.35-.93.43-.85.31-1.39 1-.54.7-1.01.86-.46.15-.62.31-.23.15-1.09.19-.85.04-1.47.5-.23.16-.46.55l-.39.62q-.62 1.47-1.75 2.67-1.12 1.2-2.67 1.67-.62.15-.97.58t-.58 1.01-.47 1.16q-.23.58-.62 1.05l-1.08 1.08q-.62.63-.89 1.25-.28.62-.66 1.39-.39.78-.82 1.4-.42.62-.97 1.31-.31.32-.5.7-.19.39-.35.78-.15.39-.12.77.04.39.04.86 0 1.93.39 3.18.39 1.24 2.64 1.62.85.16 1.51.78t1.59.62q.85 0 1.63.39.31.07.77-.04.47-.12.7-.43.54-.54 1.16-.93t1.24-.85q.55-.39 1.4-.31t1.63-.47q.62-.46 1.24-.31 1.08 0 2.13-.31t1.74-.23q.7.16.9.66.19.5.19 1.12t-.19 1.28q-.2.66-.35 1.13-.08.15.11.23.2.08.35.08.08 0 .2.08.11.07-.04.15 0 .16-.08.19-.08.04-.15.2-.62.77-1.01 1.08t-.78.51q-.39.19-.81.35-.43.15-1.05.62-.39.23-.74.42-.34.2-.73.35-.47.16-.89.04-.43-.12-.9-.27-.46-.16-.89-.27-.42-.12-.81.04-.23.07-.62.38t-.54.47q-.86.54-1.48.54-.39 0-.73.31-.35.31-.51.7-.23.39-.58.54-.35.16-.7.27-.35.12-.66.35-.31.24-.54.78-.39 1.08-1.2 2.09-.82 1.01-1.75 1.63-.62.39-1.59.85-.96.47-1.35 1.01-.39.62-.31 1.55.07.93-.39 1.79-.31.62-1.01 1.31-.39.39-.42.74-.04.35-.04.74t-.04.77q-.04.39-.43.78-.39.46.04.93.43.46.66 1.01.23.77.08 1.7-.08.39.23.93.31.55.81 1.01.51.47 1.05.78t1.01.15q.39-.15.66.16t.42.54q.47.85 1.21.81.73-.04 1.59-.27.77-.15 1.55.27.77.43 1.62.43.31 0 .62-.04t.62-.04q.47 0 .7-.08.86 0 1.44-.38.58-.39 1.04-.93.31-.31.74-.35t.85-.04q.43 0 .86-.04.42-.04.73-.43.31-.38.66-.38t.74.15q.46.16.85-.04.39-.19.7-.42.31-.24.7-.43.38-.19.85-.12 1.01.16 1.55-.69.47-.7 1.32-.74t1.55-.58q.62-.47 1.09-1.09.31-.39.77-.46.47-.08.93.07.39.08.93.04t.85-.35q.63-.54 1.13-1.12t1.36-.89q.85-.39 1.39-.62.54-.24 1.16-1.09.47-.77 1.48-.46.39.15.73-.04.35-.2.62-.43.28-.23.59-.5t.69-.35q1.24-.31 1.79-1.47 1.01-.08 1.47-.43.47-.35 1.09-.35.23 0 .69-.23.47-.24.93-.55.47-.31.9-.58.42-.27.58-.27.39-.08.73-.08.35 0 .74-.15.39-.16.62.15t.39.62m61.96-12.48q-.31 1.63-1.28 3.02-.97 1.4-2.32 2.49-1.36 1.08-2.91 1.82-1.55.73-3.1 1.04-2.33 1.01-4.31 1.52-1.97.5-3.99.66-2.01.15-4.19.07-2.17-.07-4.88-.23-.7.23-.97.78-.27.54-.31 1.16t.04 1.28 0 1.2q-.7-.08-1.13.47-.42.54-.81.93.08 1.62-.46 2.44-.55.81-1.28 1.39-.74.59-1.63 1.24-.89.66-1.51 1.9-.31.47-.39.9-.08.42-.23 1.04-.24 1.09-1.05 1.32-.82.23-1.67.35t-1.55.47q-.7.34-.78 1.66-1.7.47-3.33 1.51-1.63 1.05-3.26 2.06-1.62 1.01-3.29 1.51-1.67.51-3.53-.11-.39-.16-1.05-.47t-.97-.62q-.15-.16-.42-.58-.27-.43-.43-.58-.77-1.24-1.16-2.72-.39-1.47-.54-2.98-.16-1.51-.12-3.07.04-1.55.04-2.94.39.15.74-.12.34-.27.58-.5l-.7-1.94q.46.15.77-.08t.55-.54q-1.17-.62-1.2-1.28-.04-.66.34-1.4.39-.73.97-1.51.58-.77.58-1.63.08-1.86.43-3.52.35-1.67.82-3.3.46-1.63 1-3.26.55-1.62.93-3.41 1.32-.15 2.41-1.2 1.08-1.05 2.17-1.98 1.08-.93 2.29-1.16 1.2-.23 2.75 1.16.31 1.86-.27 3.41-.58 1.56-1.36 3.03t-1.36 3.02-.19 3.41q-2.95 1.32-3.84 3.8t-1.2 5.35q-.08.86-.23 1.83-.16.97-.55 1.82.47 1.08.16 2.13t-.58 2.06q-.27 1-.2 1.86.08.85 1.24 1.62 5.12-1.47 8.77-4.34 3.64-2.87 6.66-7.13 1.71-2.41 3.15-4.77 1.43-2.36 2.36-4.85.93-2.48 1.24-5.19.31-2.72-.31-5.74.78-.08 1.4-.77.62-.7 1.24-1.21.62-.5 1.24-.5t1.32 1.16q1.16.55 1.2 1.28.04.74-.24 1.51-.27.78-.42 1.55-.16.78.7 1.48-.24.15-.55.66-.31.5-.54 1.16t-.39 1.24q-.15.58-.07.81.69 1.25 1.55 1.28.85.04 1.78-.27t1.9-.42q.97-.12 1.82.73 1.94-.23 3.49-.5t2.99-.58q1.43-.31 2.94-.74t3.45-.89q1.01-1.24 2.29-1.71 1.28-.46 2.75-.85"/><path fill="#ed7ba1" d="M940.039 57.377q-.7.7-1.05 1.08-.35.39-.62.74t-.62.74-1.05 1.16q-.62.62-1.16 1.32t-1.24 1.24q-.93-.23-1.44.23-.5.47-.93 1.05-.42.58-.77 1.08-.35.51-.89.43-1.87 1.01-3.73 1.75-1.86.73-3.56 2.13l-.62-.62-8.07 3.87q-.38.16-.77.47t-.78.54q-1.7.93-3.53 1.67-1.82.74-3.6 1.36l-1.01.31q.62 1.55 0 2.17t-1.78.89q-1.17.27-2.56.35-1.4.08-2.17.54-.93-.15-1.9-.12-.97.04-1.98.2-1.09.15-2.02.15t-2.01-.23h-.16q-1.31.62-2.28.27t-1.75-1.16q-.77-.82-1.43-1.94t-1.36-2.05q-.47-.62-1.16-1.79-.7-1.16-1.21-2.48-.5-1.32-.62-2.67-.11-1.36.59-2.37.69-1.01 1.12-2.17t.43-2.71q0-.55-.04-1.01-.04-.47-.04-1.01.39 0 .85.04.47.04.89 0 .43-.04.7-.31t.27-.97q0-.39-.27-.62t-.35-.47q.47-.69.89-1.12.43-.43.74-.85.31-.43.47-1.01.15-.58-.08-1.59.93-1.63 2.21-2.91t2.67-2.4q1.4-1.13 2.87-2.21 1.48-1.09 2.79-2.33 1.48.62 2.37 0t1.59-1.36q.7-.73 1.39-1.2.7-.46 1.87.39l.15.16q2.09-2.1 4.23-1.87 2.13.24 3.64 1.4t1.98 2.68q.46 1.51-.86 2.05.86.85.86 2.02 0 1.16-.62 2.01-.7.93-1.2 1.9-.51.97-1.05 2.06-.78 1.78-1.71 3.37t-2.63 2.68q-1.4-.39-1.9.31-.51.69-.74 1.51-.23.81-.54 1.28-.31.46-1.32-.31l-.16-.16-.15.16q-.62.62-.97 1.39-.35.78-.97 1.17-.7-.24-1.47-.39-.78-.16-1.48-.31 0 1.63-.62 2.56t-1.59 1.51q-.96.58-2.21.93-1.24.35-2.44.85-1.2.51-2.25 1.24-1.04.74-1.66 2.06.77.85 1.93.97 1.17.11 2.41 0 1.24-.12 2.44-.12t2.13.62l.08.08.08-.08q1.86-.23 3.6-.89 1.75-.66 3.42-1.4 1.66-.73 3.41-1.39 1.74-.66 3.6-.97.39.62 1.05.7.66.07 1.28-.08l.08-.16q.15-.54.31-.97.15-.42.46-.97.54-.85 1.32-1.31.78-.47 1.67-.7t1.9-.31 2.01-.23h.16l.08-.24q.31-.93.81-1.28t1.09-.5q.58-.16 1.24-.23.66-.08 1.28-.47 1.39.47 2.32-.31.93-.77 1.78-1.63l.63.78.23-.31q1.16-1.09 1.74-1.63t1.13-.97q.54-.43 1.28-.85.73-.43 2.05-1.28 1.09-.7 2.13-1.4 1.05-.69 2.06-1.55.39.16.39.58v.82q-.08.15-.12.46t.12.47m-32.11-9.69q-.07-.08-.11-.08t-.12-.08q-1.63-.85-2.71-.81-1.09.04-1.98.62t-1.63 1.47q-.73.89-1.55 1.63-.81.74-1.9 1.12-1.08.39-2.63-.07-.24 1.24-.43 2.44t-.27 2.44q-1.32.47-2.06 1.32-.73.85-1.24 1.86-.5 1.01-.93 2.13-.42 1.13-1.12 2.13l.31.39q.31-.15.7.23.38.39.54.55.85-1.24 2.29-2.1 1.43-.85 2.94-1.59 1.51-.73 2.91-1.59 1.4-.85 2.09-2.24 2.48-.7 3.73-2.8 1.24-2.09 2.09-4.34.15-.46.58-1.35.43-.9.5-1.28"/><path fill="#ed7ba1" d="M984.849 65.747q-1.78.86-2.4 2.1t-.97 2.56q-.35 1.31-.85 2.52-.51 1.2-2.13 1.97-.39 1.4-1.52 1.94-1.12.54-2.36.97t-2.21 1.12q-.97.7-.97 2.41-1.55.85-3.37 1.55-1.83.7-3.8 1.05-1.98.34-3.92.27-1.94-.08-3.64-.78-1.17-.54-2.25-1.39-.39-.31-.74-.51-.35-.19-.74-.58-.93-.93-1.55-2.17t-1-2.64q-.39-1.39-.62-2.79-.24-1.39-.39-2.63l2.87-7.76q-2.25-1.78-3.65-4.15-1.39-2.36-3.41-4.38-.39.54-1.01.93t-.46 1.24l.77.7q-2.56 2.79-5.15 6.32-2.6 3.53-4.07 7.1-1.71-.08-2.41.81t-1.16 2.02q-.47 1.12-1.16 2.05-.7.93-2.33.78-.39.85-.78 1.82-.38.97-.93 1.82-.54.85-1.31 1.43-.78.59-1.94.59-.62-.62-.7-1.32t.15-1.44q.24-.73.62-1.47.39-.74.55-1.43.62-2.25 2.25-4.08 1.62-1.82 3.25-3.64t2.79-3.84q1.17-2.01.93-4.73 1.01-.08 2.06-.42 1.05-.35 1.94-.93.89-.59 1.39-1.48.51-.89.35-2.13-.62-.31-.7-.89-.07-.58 0-1.2 1.71-.55 2.76-1.9 1.04-1.36 1.9-2.91.85-1.55 1.66-3.14.82-1.59 2.14-2.75 1.08.62 2.17 1.04 1.08.43 2.09 1.13-.7.93-.85 1.78-.16.85-.16 1.75v1.74q0 .85-.46 1.78 1.24 1.09 2.09 2.56.85 1.48 2.17 2.48.93-.69 2.1-.73 1.16-.04 2.36 0t2.29-.16q1.08-.19 1.78-1.28.31.31.93.31h1.24q.62 0 1.09.2.46.19.54.73.08.62-.04.86-.11.23-.27.77-.15.62-.08.62.08 0-.15.54-.39 1.01-1.28 1.71t-1.78 1.36q-.9.66-1.63 1.47-.74.81-.74 2.05-1.7.63-2.4 1.83t-.93 2.71q-.24 1.51-.31 3.1-.08 1.59-.55 2.91l.7.78.62-.78q1.09 1.55 2.6 1.94t3.14.23q.78-1.16 1.82-1.86 1.05-.7 2.25-1.16 1.2-.47 2.48-.86 1.28-.38 2.44-.93.93-.46 1.59-1 .66-.55 1.44-1.24 2.32-2.18 4.61-4.27t4.62-4.26q.46 0 .62.46.15.47.15 1.05t-.04 1.16-.04.89"/><path fill="#ed7ba1" d="M1038.209 59.997q-.15 2.1-1.12 3.73t-2.37 2.98q-1.39 1.36-3.02 2.56t-2.95 2.52q.23 1.63-.46 1.94-.7.31-1.67.35t-1.94.23-1.28 1.59q-1.09 0-1.78.7-.7.7-1.4 1.43-.7.74-1.59 1.24-.89.51-2.29.27-.38.78-1 1.01-.62.24-1.32.31-.7.08-1.36.24-.66.15-1.12.77l-1.17-1.71q-3.33 1.48-6.47 1.25-3.14-.24-6.63-.7-.47-.86-1.05-1.55l-1.16-1.4q-.58-.7-1.09-1.39-.5-.7-.81-1.63l1.16-1.17-1.16-1.16q0-.62.08-1.39.08-.78.04-1.52-.04-.73-.31-1.39-.28-.66-1.05-1.05-1.78 1.71-3.06 3.76-1.28 2.06-2.48 4.23-1.21 2.17-2.52 4.26-1.32 2.1-3.18 3.8.38 1.16-.24 1.55t-1.55.78q-1.47-1.48-1.74-3.07-.27-1.58.11-3.29.39-1.71 1.13-3.37.74-1.67 1.36-3.22.38-.93.58-1.78.19-.86.35-1.87.15-.62.35-1.2.19-.58.34-1.2l.59-2.52q.27-1.2.42-2.52.78-4.57 1.51-9.19.74-4.61 2.52-8.88.31-4.11 2.02-7.52t3.95-6.74q-.31-.86.12-1.9.43-1.05 1.16-2.1.74-1.04 1.55-2.01.82-.97 1.28-1.67-.93-1.24-.27-2.09.66-.86 1.75-1.71 1.08-.85 1.97-1.78.9-.93.43-2.25.47-1.01 1.55-1.55 1.09-.54 2.25-1.01 1.16-.46 2.09-1.05.93-.58 1.09-1.66 2.02-.08 3.41.66 1.4.73 2.56 2.28-.08.55 0 1.28.08.74.08 1.48 0 .73-.12 1.39-.11.66-.58 1.13.62.46.5 1.2-.11.73-.46 1.51-.35.77-.74 1.55t-.39 1.4q-.07 2.17-1.12 4.38t-2.52 3.76q-.93 3.87-2.4 7.48-1.48 3.61-4.11 6.71.31.69-.12 1.2-.43.5-.93 1.01-.5.5-.7.97-.19.46.58 1 2.25-3.49 5.7-5.35t7.33-2.94q.54.54 1.12.73.59.2 1.21.43.46-.93 1.08-.93t1.24.43q.62.42 1.28.97.66.54 1.2.69 1.17.86 1.48 2.02t.31 2.44v2.6q0 1.32.54 2.4-1.4 2.79-3.53 5.2-2.13 2.4-4.15 4.88l-.62-.54q-2.17 2.09-5 3.76t-5.62 2.75q-1.09-.54-2.02-.97-.93-.42-2.24-.19-1.79 1.32-2.18 3.49-.38 2.17.47 4.19.54 1.32 1.32 1.63.77.31 1.67.27l1.78-.08q.89-.04 1.74.58l.62-.54q.55.7 1.05.62t1.05-.35q.54-.27 1.04-.39.51-.11.97.66.78-1.01 1.98-1.08 1.2-.08 2.4-.04 1.21.04 2.29-.2 1.09-.23 1.71-1.63 1.16.24 1.82-.23.66-.46 1.24-1.04.58-.59 1.16-1.13t1.67-.54q1.24-.85 2.33-1.9 1.08-1.05 2.13-2.1 1.05-1.04 2.09-2.05 1.05-1.01 2.37-1.71.77-.07 1.39-.77t1.28-1.4q.66-.69 1.44-1.16.77-.47 1.78-.16m-30.24-44.89-4.57 2.02q-.39.46-.97 1.31-.59.86-1.05 1.83-.47.97-.74 1.93-.27.97-.04 1.59-.54.39-1.28 1.28-.73.9-1.35 1.94-.62 1.05-1.05 2.1-.43 1.04-.27 1.74-1.24.54-1.4 1.51-.15.97-.19 1.94t-.39 1.78q-.35.82-1.98 1.05l.94 1.47q.07.62 0 .9-.08.27-.31.46-.24.19-.51.39-.27.19-.5.58.77.62.42 1.09-.35.46-.93 1-.58.55-.97 1.32-.38.78.31 1.94-1.31 1.16-1.9 3.22-.58 2.05-.89 4.42-.31 2.36-.54 4.77-.23 2.4-.78 4.34 2.95-5.97 6.13-11.63t5.89-11.71q-.38-1.32.24-2.29t1.39-1.86q.78-.89 1.32-1.7.54-.82 0-1.83.39-.38.81-.81.43-.43 1.05-.35-.15-.7.12-1.74.27-1.05.73-2.1.47-1.04 1.05-1.94.58-.89 1.2-1.28-.23-1 .39-2.21.62-1.2 1.16-2.36.55-1.16.62-2.25.08-1.08-1.16-1.86m8.37 32.95q-.46-.62-.93-1.2-.46-.58-.93-1.2-.85-1.01-1.31-.66-.47.35-.97 1.01-.51.66-1.21 1.16-.69.51-1.86-.27-1.78 1.47-3.76 3.02-1.97 1.56-3.8 3.26-1.82 1.71-3.25 3.68-1.44 1.98-2.14 4.39.78 1.24 1.83 1.55 1.04.31 2.05.27t1.86-.2q.85-.15 1.32.08.93-.77 1.98-1.24 1.04-.46 2.17-.89 1.12-.43 2.17-.89 1.05-.47 1.98-1.17 2.56-1.86 3.83-4.73 1.28-2.86.97-5.97"/><path fill="#ed7ba1" d="M1051.539 32.707q-1.4.54-1.55 1.63-.16 1.09-.12 2.25t-.12 2.17q-.15 1.01-1.55 1.32-.54-.93-1.35-1.75-.82-.81-1.59-1.63-.78-.81-1.24-1.74-.47-.93-.31-2.25l3.87-4.5q.93.31 1.48.78.54.46.93 1.08.38.63.73 1.28.35.66.82 1.36m15.04 34.74q.08 1.7-.27 2.4t-.82 1.13q-.46.42-.81.93-.35.5-.35 1.74-1.78 1.94-2.87 2.83-1.08.89-2.09 1.48-1.01.58-2.25 1.27-1.24.7-3.41 2.18l-.54.07q-.24 1.17-.82 1.36t-1.32.19q-.73 0-1.43.16-.7.15-1.16 1.32-1.32.38-2.25.31-.93-.08-2.41-.08-.46 0-1.2-.08t-1.2.08q-.31.08-.66.43t-.74.58q-.38.23-.77.19t-.7-.66q-.93.24-1.71 0-.77-.23-1.47-.77-.7-.55-1.28-1.28-.58-.74-1.12-1.36-.39-.46-.86-.85-.46-.39-.85-.78-.85-.85-1.24-2.17t-.46-2.71q-.08-1.4.07-2.79.16-1.4.47-2.49.7-.69.97-1.58.27-.9.46-1.83.2-.93.47-1.82t.97-1.59q0-1.01.35-1.86t.93-1.63q.58-.77 1.32-1.43.73-.66 1.35-1.28.62 0 1.24-.04t1.17.08q.54.11.93.46.38.35.62 1.13.54 2.09-.27 3.37-.82 1.28-1.83 2.44-1.01 1.17-1.63 2.41t.31 3.17q-.85 0-1.12.47t-.39 1.05q-.11.58-.35 1.12-.23.54-.93.78.47.46.51 1.62.04 1.17.23 2.21.19 1.05.7 1.67.5.62 1.9.08 1.01.85 2.44.7 1.43-.16 2.68-.08 1.08-.7 1.86-.74.77-.04 1.47.16.7.19 1.47.35.78.15 1.86-.24.31-1.31 1.09-1.55.77-.23 1.55-.27t1.43-.27q.66-.23.9-1.55.62-.78 1.47-.89.85-.12 1.74-.27.9-.16 1.63-.66.74-.51 1.05-1.98 1.32-1.01 1.9-1.51.58-.51.97-.82t1.01-.69q.62-.39 2.09-1.32"/><path fill="#ed7ba1" d="M1102.709 78.307q.08.93-.31 1.4-.39.46-1.04.7-.66.23-1.44.35-.77.11-1.32.42-2.25-.23-4.34-.66-2.09-.42-3.88-1.31-1.78-.9-3.21-2.37-1.44-1.47-2.45-3.72 1.01-1.63.7-3.61-.31-1.97-.58-3.83-.27-1.87.08-3.42t2.67-2.48q-.15-.85.04-1.86.2-1.01-.58-1.7-2.71.93-4.73 2.63-2.02 1.71-3.84 3.72-1.82 2.02-3.64 4.07-1.82 2.06-4 3.61-1 .08-2.13-.12-1.12-.19-1.9.66.08.55.39.93.31.39.5.78.2.39.2.81 0 .43-.55.97-.77.78-1.66 1.28-.89.51-1.71 1.09-.81.58-1.36 1.35-.54.78-.54 2.1-.46-.24-.85-.12t-.74.43-.66.7q-.31.38-.62.62-.15.38.08.65.23.28.54.59-.31.85-.81 1.04-.5.2-1.09.04-.58-.15-1.16-.5t-1.05-.58q-.23-1.01-.31-2.33-.07-1.32.08-2.6.16-1.28.62-2.44.47-1.16 1.4-1.94.31-.23.39-.27l.07-.04.08-.04q.08-.04.31-.27.62-.7.85-1.51.24-.81.39-1.67.16-.85.43-1.66.27-.82.97-1.44-.31-1.24.04-2.21.34-.97.93-1.86l1.16-1.78q.58-.9.74-1.98.07-.39.03-.74-.03-.35-.03-.73-.16-1.24.27-1.9.42-.66 1.08-1.09t1.4-.89q.73-.47 1.28-1.4 2.25 1.09 2.67 2.91.43 1.82.27 4.07-1.31.85-2.01 2.37-.7 1.51-.93 2.9.15.47.42.51.28.04.62-.08.35-.12.66-.27.31-.16.62-.16 2.8-1.93 5.55-4.34 2.75-2.4 4.3-5.5 2.25-1.09 4.27-2.52 2.01-1.44 4.42-2.14l1.78-1.78q.39.62.93.27t1.08-.81q.55-.47 1.05-.54.51-.08.97 1.08.78 2.02.39 3.92t-1.2 3.72q-.82 1.82-1.67 3.68t-1.01 3.8v.97q0 .5-.08 1.05-.15 1.63-.42 3.53t.19 3.45q.39 1.39 1.63 2.48 1.24 1.08 2.17 2.17.54-.08 1.09.08.54.15 1.04.31.51.15.97.11.47-.04.93-.5.55-.23 1.05.04t.97.66.97.66 1.12.03m64.59-14.11q-1.7 3.88-3.1 6.01-1.39 2.13-3.06 3.53-1.67 1.39-3.84 2.6-2.17 1.2-5.35 3.37-1.32.08-2.87.58-1.55.51-2.64 1.36-2.32-.23-4.26-1.01t-3.64-2.48q-.39-.39-.7-.85-.31-.47-.7-.86-.85-1-1.09-1.78-.23-.78-.38-2.02-.31-1.78-.93-2.56-.62-.77-2.41.78l-.7-.62-.15.16q-.7.54-1.12.93-.43.38-.86.81-.42.43-.81.89-.39.47-.93 1.16-.93 1.17-2.06 2.41-1.12 1.24-2.59 1.7-.24.24-.39.43-.16.19-.55.27-.46.16-1.08-.08-.62-.23-1.01-.62-.85 0-1.51.43t-1.24 1.09-1.09 1.35q-.5.7-1.12 1.17-1.24-.47-2.29-.16t-2.05.58q-1.01.27-2.02.24-1.01-.04-2.02-1.21-.46-2.32-.77-4.26-.31-1.63-.54-3.1-.24-1.48-.24-1.79.39-.38.35-1.04t-.19-1.13q-.16-.07-.16-.15t-.15-.16q.39-.31.58-.77.19-.47.58-.78-.23-.62-.54-1.39-.31-.78-.31-1.55.23-.63.43-.7.19-.08.89-.24-.08-.38-.2-.73-.11-.35-.04-.74 0-.77.35-1.36.35-.58.74-1.16t.7-1.28.31-1.63v-.38q1.16 0 1.55-.66t.46-1.52q.08-.85.08-1.7t.47-1.24q.31-.31.58-.27t.66.04q.46-.55.62-.82.15-.27-.08-1.05.54 0 .85-.23t.51-.62q.19-.39.38-.77.2-.39.51-.7 0-1.94 1.01-2.72 1-.77 2.28-1.27 1.28-.51 2.56-1.21 1.28-.69 1.9-2.48 1.01.62 1.71.12.7-.51 1.32-1.09t1.39-.77q.78-.2 1.94 1.04.47-1.47 1.9-1.55 1.44-.07 2.6.62v.08h.08q1.24.23 1.86 1.2t1.04 2.17q.43 1.21.93 2.37.51 1.16 1.44 1.86.46-2.02.89-4.11t1.43-3.95q.7.85 1.48.31l-.08-.16q0-1.24.5-2.25.51-1.01 1.01-1.97.51-.97.62-2.02.12-1.05-.73-2.37 1.31-.38 1.9-1.47.58-1.08.93-2.36.34-1.28.77-2.6t1.36-2.25q0-.23-.04-.46-.04-.24-.04-.47.08-.62.47-1.09.38-.46.85-.93.46-.46.81-1.04t.27-1.44q.78-1.01 1.4-2.67.62-1.67 1.32-3.14.7-1.48 1.63-2.21.93-.74 2.4.11.31.93.23 1.67-.07.74-.85 1.51.47.47.7.78-.23 2.4-.89 4.77-.66 2.36-1.28 4.61.15.16.31.31.15.16.31.31-1.32 1.86-2.14 3.72-.81 1.86-1.43 4.03-.23.86-.43 1.79-.19.93-.5 1.7-.39.78-.93 1.67t-.93 1.75q-.85 1.78-1.51 3.6t-1.28 3.68q-.78 2.25-1.59 4.42-.82 2.17-1.98 4.27v1.24q-.08.85-.54 1.2-.47.35-1.05.62t-1.12.78q-.55.5-.78 1.66v.08l.08.08q.77 1.7.35 3.14-.43 1.43-.97 2.79t-.74 2.68q-.19 1.31 1.05 2.71-.08 1.55.62 2.44t1.63 1.51 1.9 1.13q.97.5 1.43 1.28.78-.78 1.67-1.2.89-.43 1.78-.66.89-.24 1.79-.43.89-.19 1.74-.5 2.02-.55 2.79-1.32.78-.78.78-1.01.07-1.09.81-1.4t1.71-.42q.97-.12 1.94-.35.96-.23 1.43-1.16.85.07 1.51-.59.66-.65 1.2-1.35.55-.7 1.09-1.17.54-.46 1.16.08m-32.1-11.4.23-.54q-1.24-.93-1.66-2.13-.43-1.2-.7-2.44t-.7-2.37q-.43-1.12-1.67-1.9l-.15-.08q-.08 0-.85.16-.78.15-.93.23.62.54.77.93.16.39.04.78t-.39.81q-.27.43-.42 1.05-.16.15-.62-.12-.47-.27-.7-.42-1.09 1.62-3.07 2.13-1.97.5-3.76.97.16.38.31.7.16.31.31.69-2.32 1.55-3.37 3.76t-1.86 4.58q-.81 2.36-1.94 4.57-1.12 2.21-3.45 3.76.39.62.54 1.24.16.62 1.01.93.23.86.2 1.75-.04.89-.2 1.74-.15.86-.19 1.75t.19 1.82l.16.16q2.4.85 3.76.15 1.35-.7 2.4-1.78 1.05-1.09 2.29-2.02t3.49-.46l.31-.47q-.16-.39-.23-.7-.08-.31-.08-.69.08-.86.46-1.36.39-.51 1.01-1.13.54-.62 1.05-1.31.5-.7.97-1.48.46-.69 1.08-1.2.62-.5 1.63-.12l1.47-5.58q.08-.39.74-.7t1.16-.69q.51-.39.62-1.01.12-.62-.89-1.63.16-.31.24-.78.07-.46.23-.85.15-.39.39-.62.23-.23.77-.08"/><rect width="317.835" height="16.95" x="610.772" y="-8.313" fill="none" rx="0" ry="0" transform="matrix(.97 0 0 .97 268.83 111.66)"/><path fill="#ec4104" d="M885.739 116.397h-1.05v-4.3l-3.6-5.87h1.1l3.24 5.32h.09l2.58-5.32h1.11l-3.47 5.66Zm5-5.09q0-1.11.4-2.08t1.12-1.69q.71-.71 1.68-1.11t2.08-.4q1.12 0 2.09.4.96.4 1.68 1.11.72.72 1.12 1.69t.4 2.08q0 1.12-.4 2.09-.4.96-1.12 1.68t-1.68 1.12q-.97.4-2.09.4-1.11 0-2.08-.4t-1.68-1.12q-.72-.72-1.12-1.68-.4-.97-.4-2.09m1.1 0q0 1.48.52 2.6.53 1.11 1.47 1.72.95.62 2.19.62 1.25 0 2.2-.62.94-.61 1.46-1.73.53-1.12.53-2.59 0-1.46-.53-2.57-.52-1.12-1.46-1.74-.95-.62-2.2-.62-1.24 0-2.18.61-.94.62-1.47 1.73t-.53 2.59m12.39 1.03v-6.1h.98v6.13q0 1.76.87 2.74.86.98 2.43.98.99 0 1.72-.39.74-.38 1.13-1.06.4-.69.38-1.57l-.25-6.83h.99l-.25 6.83q-.06 1.74-1.04 2.64t-2.8.9q-1.96 0-3.06-1.14t-1.1-3.13m11.72 4.06v-10.17h1.95q1.54 0 2.39.65.85.64.85 1.8 0 .91-.53 1.5-.53.6-1.54.8v.09q.96.19 1.57.9t.92 1.75q.27.96.54 1.49t.6.77q.33.23.78.33v.09h-.6q-.64 0-1.05-.24-.42-.23-.71-.78t-.55-1.52q-.42-1.5-1.12-2.13-.7-.62-1.7-.62h-.08v-.26h.08q2.34 0 2.34-2.15 0-2.12-2.19-2.12h-.96v9.82Zm21.27-1.25h.08l-.08.88q-.41.18-.99.31t-1.18.2q-.59.06-1.06.06-1.18 0-2.18-.4t-1.75-1.11-1.17-1.68q-.42-.96-.42-2.1 0-1.13.42-2.1.42-.96 1.17-1.67t1.75-1.11 2.18-.4q.48 0 1.08.07.59.07 1.16.2.56.12.96.28l-.08.81h-.08q-.54-.49-1.35-.75-.82-.26-1.69-.26-1.31 0-2.3.61-1 .62-1.56 1.73-.55 1.11-.55 2.59 0 1.5.55 2.6.56 1.11 1.55 1.72.99.62 2.31.62.99 0 1.84-.32t1.39-.78m2.26-3.84q0-1.11.4-2.08t1.12-1.69q.72-.71 1.68-1.11.97-.4 2.09-.4t2.08.4q.97.4 1.69 1.11.72.72 1.12 1.69.39.97.39 2.08 0 1.12-.39 2.09-.4.96-1.12 1.68t-1.69 1.12q-.96.4-2.08.4t-2.09-.4q-.96-.4-1.68-1.12t-1.12-1.68q-.4-.97-.4-2.09m1.1 0q0 1.48.53 2.6.52 1.11 1.46 1.72.95.62 2.2.62t2.19-.62q.95-.61 1.47-1.73t.52-2.59q0-1.46-.52-2.57-.52-1.12-1.47-1.74-.94-.62-2.19-.62t-2.19.61q-.93.62-1.46 1.73-.54 1.11-.54 2.59m21.06-5.08h1.05v10.17h-.99v-9.33h-.09l-3.51 6.74h-.45l-4-5.94h-.08l.31 8.53h-.98l.36-10.37h.29l4.58 6.79h.08Zm5.81 10.17h-.99v-10.17h1.82q1.76 0 2.73.75t.97 2.08q0 1.34-.97 2.09-.97.74-2.73.74h-.83Zm.83-9.82h-.83v4.97h.83q2.66 0 2.66-2.49 0-2.48-2.66-2.48m6.01 9.82h-1.06l3.91-10.17h.9l3.91 10.17h-1.06l-1.81-4.77h-3.29Zm3.04-9.41h-.09l-1.35 4.29h3.06Zm7.74 9.41h-.99l.36-10.37h.18l7.3 8.83h.09l-.32-8.63h.99l-.36 10.37h-.18l-7.3-8.83h-.09Zm12.16 0h-.99v-10.17h.99Zm3.04-5.09q0-1.11.4-2.08.39-.97 1.11-1.69.72-.71 1.69-1.11.96-.4 2.08-.4t2.09.4q.96.4 1.68 1.11.72.72 1.12 1.69t.4 2.08q0 1.12-.4 2.09-.4.96-1.12 1.68t-1.68 1.12q-.97.4-2.09.4t-2.08-.4q-.97-.4-1.69-1.12t-1.11-1.68q-.4-.97-.4-2.09m1.1 0q0 1.48.52 2.6.53 1.11 1.47 1.72.94.62 2.19.62t2.2-.62q.94-.61 1.46-1.73.53-1.12.53-2.59 0-1.46-.53-2.57-.52-1.12-1.46-1.74-.95-.62-2.2-.62t-2.18.61q-.94.62-1.47 1.73t-.53 2.59m13.3 5.09h-.99l.36-10.37h.18l7.3 8.83h.09l-.32-8.63h.99l-.36 10.37h-.18l-7.3-8.83h-.09Zm16.08 0h-.99v-10.17h.99Zm4.54 0h-.98l.36-10.37h.17l7.31 8.83h.09l-.32-8.63h.98l-.36 10.37h-.17l-7.31-8.83h-.09Zm14.2-.32.09-.87h.08q.57.49 1.28.77.71.27 1.41.27.99 0 1.6-.54.61-.55.61-1.46 0-.51-.23-.95-.22-.43-.74-.88-.51-.45-1.41-.98-.63-.36-1.2-.76-.56-.4-.92-.93-.37-.53-.37-1.27 0-1.1.8-1.78.8-.67 2.11-.67.58 0 1.25.12.66.12 1.03.31l-.08.82h-.08q-.83-.9-2.12-.9-.93 0-1.5.47t-.57 1.27q0 .59.32 1.02.31.43.8.77.5.34 1.06.66.66.38 1.27.8.62.42 1.02 1.01t.4 1.48q0 .81-.38 1.43-.38.61-1.07.96-.68.35-1.6.35-.58 0-1.37-.14-.78-.15-1.49-.38m13.25.32h-4.47v-10.17h4.43v.71l-2.54-.33q-.67-.09-.9-.09v4.43q.19 0 .9-.04l2.38-.15v.67l-2.38-.15q-.71-.04-.9-.04v4.87q.26 0 .91-.09l2.57-.33Zm2.6 0h-1.06l3.91-10.17h.9l3.91 10.17h-1.06l-1.8-4.77h-3.3Zm3.04-9.41h-.09l-1.35 4.29h3.07Zm15.5-.76h1.04v10.17h-.98v-9.33h-.09l-3.52 6.74h-.45l-3.99-5.94h-.09l.32 8.53h-.99l.37-10.37h.29l4.57 6.79h.09Zm4.81 10.17v-10.17h.99v9.88q.27 0 .87-.09l2.41-.36v.74Zm11.18 0h-4.47v-10.17h4.43v.71l-2.55-.33q-.66-.09-.9-.09v4.43q.19 0 .9-.04l2.39-.15v.67l-2.39-.15q-.71-.04-.9-.04v4.87q.26 0 .92-.09l2.57-.33Zm2.16-.32.09-.87h.09q.56.49 1.28.77.71.27 1.4.27.99 0 1.6-.54.61-.55.61-1.46 0-.51-.22-.95-.23-.43-.74-.88-.52-.45-1.42-.98-.62-.36-1.19-.76t-.93-.93-.36-1.27q0-1.1.8-1.78.79-.67 2.1-.67.58 0 1.25.12t1.03.31l-.07.82h-.09q-.83-.9-2.12-.9-.93 0-1.49.47-.57.47-.57 1.27 0 .59.31 1.02t.81.77q.49.34 1.06.66.65.38 1.27.8t1.02 1.01q.39.59.39 1.48 0 .81-.37 1.43-.38.61-1.07.96t-1.61.35q-.58 0-1.36-.14-.78-.15-1.5-.38m7.89 0 .09-.87h.08q.57.49 1.28.77.71.27 1.41.27.99 0 1.6-.54.61-.55.61-1.46 0-.51-.23-.95-.22-.43-.74-.88-.51-.45-1.41-.98-.63-.36-1.19-.76-.57-.4-.93-.93-.37-.53-.37-1.27 0-1.1.8-1.78.8-.67 2.11-.67.58 0 1.25.12t1.03.31l-.07.82h-.09q-.83-.9-2.12-.9-.93 0-1.5.47-.56.47-.56 1.27 0 .59.31 1.02t.8.77q.5.34 1.06.66.66.38 1.28.8.61.42 1.01 1.01t.4 1.48q0 .81-.38 1.43-.37.61-1.06.96t-1.61.35q-.58 0-1.36-.14-.79-.15-1.5-.38m12.69.32v-10.17h.99v9.88q.28 0 .87-.09l2.41-.36v.74Zm7.69 0h-.99v-10.17h.99Zm6.97.21-4.62-10.37h1.09l3.97 9.03h.08l3.33-9.03h1.09l-4.62 10.37Zm8.18-.21h-.99v-10.17h.99Zm4.56 0h-.99l.36-10.37h.18l7.3 8.83h.09l-.32-8.63h.99l-.37 10.37h-.17l-7.31-8.83h-.08Zm18.91-4.83h-2.68v-.34h3.67v3.95q-.67.67-1.63 1.04-.97.38-2.16.38-1.22 0-2.25-.4t-1.8-1.12-1.2-1.67q-.43-.96-.43-2.1 0-1.13.43-2.09t1.2-1.68q.77-.71 1.8-1.11t2.25-.4q.52 0 1.14.07t1.18.2q.57.12.96.29l-.07.82h-.09q-.58-.51-1.39-.77-.82-.26-1.73-.26-1.37 0-2.4.61-1.03.62-1.6 1.73-.58 1.11-.58 2.59t.58 2.6q.57 1.11 1.6 1.72 1.03.62 2.4.62.84 0 1.56-.23t1.24-.67Z"/><path fill="#9fa6b2" d="M1265.863 55.667q.15-3.8-3.317-7.127c2.097-5.115 2.16-9.288.16-12.412-2.46-3.863-7.853-5.82-16.017-5.82-3.424 0-6.677.342-8.967.673 2.193-5.82 6.099-18.51 1.819-25.744q-2.846-4.75-9.288-5.275h-.15c-2.963 0-3.98 3.5-5.67 9.31-2.718 9.415-6.784 23.39-20.138 29.242v-4.922c0-.995-.802-1.797-1.797-1.797h-31.137c-.996 0-1.798.802-1.798 1.797v52.312c0 .995.803 1.81 1.808 1.81h31.128a1.82 1.82 0 0 0 1.808-1.81v-5.22l5.97-.055a27.5 27.5 0 0 0 16.478 6.57c.642.054 5.094.44 10.593.44 13.044 0 20.48-2.034 22.717-6.239q1.498-2.804-.193-6.292 3.766-2.365 4.312-5.778c.428-2.74-.888-5.21-1.99-6.73 1.498-1.39 3.52-3.83 3.66-6.934m-65.155-14.509v42.96h-27.53V35.391h27.53Zm57.94 19.72a1.798 1.798 0 0 0-.246 2.804c.739.706 2.568 3.006 2.237 5.103q-.386 2.27-4.024 4.002a1.798 1.798 0 0 0-.716 2.632q1.819 2.73 1.005 4.291c-1.455 2.718-8.763 4.344-19.56 4.344a124 124 0 0 1-10.517-.45c-.321 0-7.8-.063-14.691-6.13q-.514-.428-1.2-.439h-.01l-6.612.054V42.42c16.05-6.13 20.758-22.353 23.604-32.132.76-2.643 1.712-5.885 2.397-6.688 2.91.3 4.922 1.445 6.12 3.488 3.842 6.474-1.027 20.587-3.22 25.477a1.798 1.798 0 0 0 2.01 2.504c.055-.01 5.544-1.145 11.47-1.145 4.71 0 10.787.717 12.99 4.162q2.163 3.424-.962 10.187a1.82 1.82 0 0 0 .514 2.16q3.124 2.548 3.028 5.062c-.14 2.996-3.584 5.36-3.617 5.382"/><path fill="#9fa6b2" d="M1193.242 80.501a3.638 3.638 0 1 0 0-7.276 3.638 3.638 0 0 0 0 7.276"/></g><path fill="transparent" stroke="transparent" d="M719.5 0h561v120h-561z"/></g></svg>