<svg xmlns="http://www.w3.org/2000/svg" xml:space="preserve" width="2000" height="390" data-id="lg_g29G6RayLY9gAGw9Ur" data-version="1" viewBox="0 0 2000 390"><g data-padding="20"><g transform="translate(10 6.927)scale(.96448)"><rect width="63.929" height="92.66" x="175.197" y="-46.317" fill="none" rx="0" ry="0" transform="translate(117.69 221.69)scale(3.63)"/><path fill="#ed7ba1" d="M960.129 249.076q.29.87-.73 2.61-1.01 1.74-2.61 3.48t-3.05 3.19q-1.45 1.46-2.32 1.75-1.45.58-2.61 1.59-1.16 1.02-1.74 2.47-3.2 9.29-13.07 11.61-1.74.29-2.61 1.45t-1.74 2.62q-.87 1.45-1.74 2.75-.87 1.31-2.33 2.18-4.06 2.03-9.14 2.18-5.08.14-8.56 3.34-2.62 2.32-3.92 5.66-1.31 3.34-4.21 5.08t-6.39 1.16q-3.48-.58-6.38 1.45-1.17.58-2.33 2.03t-1.74 2.91q-.87 1.16-2.47 1.88-1.59.73-3.04.73-3.49-.29-6.68 1.16t-6.39 2.03l-3.77.58-.29.58q-4.65.87-8.86 2.61-4.2 1.75-8.56 2.62-3.77.58-7.26 1.16-3.48.58-7.54 1.74-3.2.87-6.39 2.9-3.19 2.04-6.68 2.33-3.19.29-6.53-.29-3.34-.59-6.53-1.75-1.45-.58-2.9 0t-2.91 1.31q-1.45.73-3.04 1.31-1.6.58-3.34 0-2.61-.87-5.81-2.33-1.45-.58-3.19-1.16t-3.19-.58q-1.17 0-3.63-.87-2.47-.87-5.08-2.18-2.62-1.3-4.79-2.75-2.18-1.46-2.76-2.62-1.74-2.61-3.92-4.5-2.18-1.88-3.63-5.08-.29-.58-1.3-1.74-1.02-1.16-1.6-1.16t-.87-1.16-.58-2.76q-.29-1.59-.44-2.9l-.14-1.31q-.58-2.32-1.02-5.08-.43-2.75-.43-5.08v-5.8q0-2.33-1.75-5.23-.87-1.16-.29-2.61t1.45-2.61q1.46-1.46 1.89-2.91.44-1.45.58-2.9.15-1.45.44-2.76.29-1.3 2.03-2.46 1.45-1.17 2.03-3.05.58-1.89.29-3.34 0-3.19 3.2-5.08 3.19-1.89 4.93-4.21t2.76-5.52q1.01-3.19 2.18-6.09.87-2.03 3.33-3.63 2.47-1.6 5.08-3.19 2.62-1.6 4.94-3.92 2.32-2.33 3.19-6.1.29-.58-.29-1.89-.58-1.3-1.45-1.88t-2.03-1.31q-1.16-.72-2.03-1.01-2.62-1.46-3.92-3.92-1.31-2.47-3.63-4.21t-5.23-2.91q-2.9-1.16-3.48-4.35-.58-2.03-1.74-4.5t-1.16-3.92q0-2.32-.29-4.21-.29-1.88-.29-3.92-.58-3.77.87-6.96 1.45-3.2 0-7.26.87-4.36 2.17-10.74 1.31-6.39 3.63-10.16.58-1.16 1.89-2.61 1.31-1.46 2.47-2.04 2.9-1.74 4.35-4.93 1.45-2.61 3.78-4.36 2.32-1.45 3.91-5.08 1.6-3.62 2.18-6.24.87-3.48 4.07-4.64 1.74-.58 2.46-2.03.73-1.46 1.31-2.76.58-1.31 1.16-2.47t1.45-1.45q1.74-.58 1.45-1.74 1.16-.87 3.49-.87 1.16 0 4.06-1.6t4.36-2.47l2.32-1.74q2.61-2.03 3.77-4.93 1.16-2.91 4.07-4.65 2.9-1.74 5.51-3.34 2.61-1.59 4.94-3.63 1.45-1.16 2.9-2.03l2.9-1.74q4.36-2.9 9-4.21 4.65-1.31 9.58-2.76 2.03-.58 3.63-3.48t5.66-3.48q1.45-.29 2.61-.29h2.61q1.17 0 2.04-1.02t1.3-2.32q.44-1.31.87-2.61.44-1.31 1.02-1.6.29-.29.44-.29.14 0 .43-.29 4.36-.87 7.11-1.31 2.76-.43 6.82-3.34 2.91-1.74 5.81-1.16t5.81-2.32q2.61-2.61 5.22-1.74 2.32.58 7.55-.29 5.22-.87 7.84-1.45 2.32.58 4.5.58 2.17 0 4.5.87 4.93 2.03 8.41 2.32 1.46.29 3.05.29 1.6 0 3.05.29 1.74 1.45 2.76 1.89 1.01.43 1.74 1.01t1.45 1.46q.73.87 1.89 2.9.29.58 1.3 1.59 1.02 1.02 2.18 2.04 1.16 1.01 1.74 1.88t-.29.87q-.58.29-.43 1.89.14 1.6.43 3.48.29 1.89.73 3.49.43 1.59.43 2.18.3 1.45-.14 3.48t-1.02 3.19q-1.74 3.49-1.88 7.26-.15 3.77-1.6 7.55-.58 2.03-2.18 4.06-1.59 2.03-2.46 4.07-1.46 2.32-1.89 4.93-.44 2.61-1.31 5.23-.29.87 0 2.17.29 1.31-.29 1.31-.87.58-1.59.72-.73.15-1.31.73t-.29 4.21-.29 5.66q-.87 2.03-2.32 3.77-1.46 1.75-2.76 3.49-1.31 1.74-2.03 3.77-.73 2.03.14 4.36.29 1.16-.58 2.03t-2.32 1.45-2.9 1.02q-1.46.43-2.33.72-1.16.58-2.75 2.03-1.6 1.45-3.2 3.34-1.59 1.89-3.05 3.63-1.45 1.74-2.32 2.61-1.74 2.32-4.79 2.91-3.05.58-5.37 2.32t-5.22 2.32q-1.45.29-3.05-.29t-3.05-1.45q-2.32-1.74-3.48-3.78-.87-1.16-1.02-3.48-.14-2.32.29-4.93.44-2.62.87-4.94.44-2.32 1.02-3.77.58-2.32.58-6.1v-6.09q0-1.46.87-2.62t2.03-2.46q1.16-1.31 2.32-2.76 1.17-1.45 1.46-3.78.29-1.45 1.74-2.32t2.9-1.16q1.74-.29 3.48-.73 1.75-.43 3.2-1.88 2.32-2.32 2.9-5.37t3.19-5.37q2.33-2.33 5.37-3.05 3.05-.73 5.37-3.05 3.2-3.19 6.1-6.53t2.61-8.27v-2.91q0-1.45.58-2.9 0-.29.58-1.74t1.02-3.05q.43-1.6.29-2.76-.15-1.16-1.02-1.16-2.32-2.32-5.37-3.34-3.04-1.01-4.5-3.05-.58-.87-2.03-1.45-2.32 1.16-2.47 2.47-.14 1.31-1.59 2.76t-3.2.87q-1.45-.58-5.08.58-3.62 1.16-5.95 1.74-2.32.58-4.06.44-1.74-.15-3.63-.29-1.89-.15-3.92.14t-4.35 2.03q-2.03 1.75-3.78 3.78-1.74 2.32-4.35 3.63-2.61 1.3-4.65 3.33-1.16 1.17-2.61 1.31-1.45.15-2.9 0-1.45-.14-3.05 0-1.6.15-2.76 1.6-.87.87-2.9 2.32t-4.35 2.76q-2.33 1.3-4.65 2.61t-3.48 1.6q-3.2 1.16-5.23 3.77t-3.77 3.19-2.32 1.17q-.87.58-4.07.72-3.19.15-5.51 1.89-.87.58-1.74 2.03-.88 1.45-1.46 2.32-2.32 5.52-6.53 10.02t-10.01 6.24q-2.32.58-3.63 2.18-1.31 1.59-2.18 3.77t-1.74 4.35q-.87 2.18-2.32 3.92l-4.07 4.07q-2.32 2.32-3.33 4.64-1.02 2.32-2.47 5.23-1.45 2.9-3.05 5.22t-3.63 4.94q-1.16 1.16-1.89 2.61-.72 1.45-1.3 2.9t-.44 2.91q.15 1.45.15 3.19 0 7.26 1.45 11.9 1.45 4.65 9.87 6.1 3.19.58 5.66 2.9t5.95 2.32q3.19 0 6.1 1.45 1.16.29 2.9-.14 1.74-.44 2.61-1.6 2.03-2.03 4.36-3.48 2.32-1.45 4.64-3.2 2.03-1.45 5.23-1.16 3.19.29 6.09-1.74 2.32-1.74 4.65-1.16 4.06 0 7.98-1.16t6.53-.87q2.61.58 3.34 2.47.73 1.88.73 4.21 0 2.32-.73 4.79-.73 2.46-1.31 4.2-.29.58.44.88.72.29 1.31.29.29 0 .72.29.44.29-.14.58 0 .58-.29.72-.29.15-.58.73-2.33 2.9-3.78 4.06t-2.9 1.89q-1.45.72-3.05 1.31-1.6.58-3.92 2.32-1.45.87-2.76 1.59-1.3.73-2.75 1.31-1.75.58-3.34.15-1.6-.44-3.34-1.02t-3.34-1.02q-1.6-.43-3.05.15-.87.29-2.32 1.45t-2.03 1.74q-3.19 2.03-5.52 2.03-1.45 0-2.75 1.16-1.31 1.17-1.89 2.62-.87 1.45-2.18 2.03t-2.61 1.02q-1.31.43-2.47 1.3t-2.03 2.9q-1.45 4.07-4.5 7.84-3.05 3.78-6.53 6.1-2.32 1.45-5.95 3.19t-5.08 3.78q-1.45 2.32-1.16 5.8.29 3.49-1.46 6.68-1.16 2.32-3.77 4.93-1.45 1.45-1.6 2.76-.14 1.31-.14 2.76t-.15 2.9q-.14 1.45-1.59 2.9-1.45 1.75.14 3.49 1.6 1.74 2.47 3.77.87 2.9.29 6.39-.29 1.45.87 3.48t3.05 3.78q1.89 1.74 3.92 2.9t3.77.58q1.45-.58 2.47.58 1.01 1.16 1.6 2.03 1.74 3.19 4.5 3.05 2.75-.15 5.95-1.02 2.9-.58 5.8 1.02t6.1 1.6q1.16 0 2.32-.15 1.16-.14 2.32-.14 1.74 0 2.62-.29 3.19 0 5.37-1.46 2.17-1.45 3.91-3.48 1.17-1.16 2.76-1.31 1.6-.14 3.2-.14 1.59 0 3.19-.15 1.6-.14 2.76-1.59t2.46-1.45q1.31 0 2.76.58 1.74.58 3.19-.15 1.46-.72 2.62-1.6 1.16-.87 2.61-1.59 1.45-.73 3.19-.44 3.78.58 5.81-2.61 1.74-2.61 4.93-2.76 3.2-.14 5.81-2.17 2.32-1.75 4.06-4.07 1.17-1.45 2.91-1.74t3.48.29q1.45.29 3.48.14 2.04-.14 3.2-1.3 2.32-2.03 4.21-4.21 1.88-2.18 5.08-3.34 3.19-1.45 5.22-2.32t4.36-4.07q1.74-2.9 5.51-1.74 1.45.58 2.76-.14 1.31-.73 2.32-1.6 1.02-.87 2.18-1.89 1.16-1.01 2.61-1.3 4.65-1.16 6.68-5.52 3.77-.29 5.51-1.59 1.75-1.31 4.07-1.31.87 0 2.61-.87t3.48-2.03q1.75-1.16 3.34-2.18 1.6-1.02 2.18-1.02 1.45-.29 2.76-.29 1.3 0 2.75-.58 1.46-.58 2.33.58t1.45 2.33"/><path fill="#9fa6b2" d="M1307.829 207.285q.557-14.13-12.338-26.507c7.8-19.024 8.04-34.546.597-46.168-9.154-14.368-29.213-21.65-59.58-21.65-12.737 0-24.836 1.272-33.353 2.506 8.159-21.65 22.686-68.854 6.766-95.759q-10.587-17.67-34.546-19.62h-.558c-11.024 0-14.805 13.014-21.094 34.625-10.11 35.024-25.233 87.003-74.903 108.773v-18.308a6.675 6.675 0 0 0-6.687-6.686H956.315a6.675 6.675 0 0 0-6.686 6.686V319.76a6.72 6.72 0 0 0 6.726 6.726h115.778a6.766 6.766 0 0 0 6.727-6.726v-19.424l22.208-.199a102.3 102.3 0 0 0 61.292 24.437c2.388.2 18.945 1.632 39.402 1.632 48.516 0 76.177-7.562 84.495-23.203q5.572-10.428-.716-23.403 14.01-8.795 16.04-21.492c1.59-10.188-3.304-19.382-7.403-25.034 5.572-5.174 13.094-14.248 13.61-25.79m-242.341-53.968v159.797H963.042v-181.25h102.405Zm215.517 73.351a6.686 6.686 0 0 0-.915 10.428c2.746 2.627 9.552 11.184 8.318 18.985q-1.433 8.437-14.965 14.885a6.686 6.686 0 0 0-2.667 9.79q6.766 10.15 3.742 15.96c-5.413 10.11-32.597 16.16-72.755 16.16a462 462 0 0 1-39.123-1.672c-1.194 0-29.014-.24-54.646-22.806q-1.91-1.592-4.457-1.632h-.04l-24.596.2V158.011c59.7-22.805 77.212-83.142 87.798-119.519 2.826-9.83 6.368-21.89 8.916-24.875 10.825 1.114 18.308 5.373 22.765 12.975 14.288 24.08-3.82 76.575-11.98 94.764a6.686 6.686 0 0 0 7.483 9.313c.199-.04 20.616-4.259 42.665-4.259 17.512 0 40.119 2.667 48.318 15.482q8.04 12.736-3.582 37.89a6.766 6.766 0 0 0 1.91 8.04q11.622 9.472 11.263 18.825c-.517 11.144-13.333 19.94-13.452 20.02"/><path fill="#9fa6b2" d="M1037.706 299.66a13.532 13.532 0 1 0 0-27.064 13.532 13.532 0 0 0 0 27.064"/></g><path fill="transparent" stroke="transparent" d="M718.5 0h563v390h-563z"/></g></svg>